<svg fill="#ffffff" xmlns="http://www.w3.org/2000/svg" viewBox="0 0 34 29.33"><g id="Layer_2" data-name="Layer 2"><g id="Layer_1-2" data-name="Layer 1"><path d="M19.37,29.33H2L0,24.8,10.14,14.66,0,4.54l.13-.31L1.88,0H19.37A14.66,14.66,0,0,1,29.71,25,14.55,14.55,0,0,1,19.37,29.33Zm.85-16.93h0l.05,0,.07,0,.14.07.06,0,.14.09.07,0,.31.26.08.09.07.09.06.07a1.25,1.25,0,0,1,.09.12l0,.07,0,0,0,.07v0l0,.07a.3.3,0,0,1,0,.08l0,.07h0s0,0,0,0l0,.07v0a.3.3,0,0,1,0,.1v0l0,.09v0s0,.05,0,.07h0s0,0,0,.06a.19.19,0,0,1,0,.08s0,.06,0,.1v.12a.49.49,0,0,1,0,.12.53.53,0,0,1,0,.13.49.49,0,0,1,0,.12.34.34,0,0,1,0,.1.25.25,0,0,1,0,.08.43.43,0,0,0,0,.05h0a.64.64,0,0,1,0,.07v0l0,.08v0l0,.1h0l0,.08,0,0h0l0,.06a.36.36,0,0,1,0,.09l0,.06v0a.41.41,0,0,0,0,.09h0a.7.7,0,0,1-.06.09l-.08.12-.06.07-.07.09-.08.08a2.38,2.38,0,0,1-.31.26l-.07.05-.14.09-.06,0-.14.07-.07,0-.05,0-.07,0,0,0-.05,0H20l-.07,0h-.16l-.07,0H19l-.08,0h-.05l-.07,0h0l-.07,0h-.05l-.06,0-.05,0-.06,0-.05,0-.08,0h0l-.06,0-.06,0L18,16.69l-.09-.07-.06,0,0,0,0,0-.07-.06-.06-.06-1.23-1.22-2.84-2.85L5.32,4.08H19.37a10.59,10.59,0,0,1,0,21.17h-14L13,17.55l-2.33-2.33L.93,25l1.54,3.56h16.9a13.88,13.88,0,0,0,0-27.76H2.4L.93,4.35,11.24,14.66h0L13.56,17h0l1.74,1.74.21.2.22.19.35.26.13.09.13.08.07,0,0,0,.12.06.12.07a3.26,3.26,0,0,0,.38.18h0l.11,0,.25.1.13,0,.17.05.36.1.23,0h.05l.21,0h0l.24,0h.81l.16,0h.07l.24,0,.27,0a1.31,1.31,0,0,0,.27-.06l.27-.07.26-.08c.13-.05.27-.1.39-.16l.12-.05h0l.06,0,0,0,0,0,.12-.06.12-.06a5.74,5.74,0,0,0,1.27-9.06l-.33-.29-.22-.19a5,5,0,0,0-.47-.33l-.24-.14c-.17-.09-.34-.18-.51-.25l-.39-.15a7.27,7.27,0,0,0-.8-.22l-.27,0L19.9,9H18.81l-.15,0-.27,0-.28.05a5.74,5.74,0,0,0-2.37,1.14l-.22.19a1.29,1.29,0,0,0-.21.2l-1.16,1.16,2.3,2.36,1.18-1.19.07-.06s.05,0,.07-.06l0,0,0,0a.18.18,0,0,1,.07-.05l.08-.06.2-.12.06,0,.06,0h0l.08,0,.05,0,.06,0h.05l.06,0,.05,0,.07,0h0l.07,0H19l.11,0h.72l.07,0h0M7.21,24.47H19.37a9.81,9.81,0,0,0,0-19.61H7.21l6.36,6.37L14.76,10A2.55,2.55,0,0,1,15,9.81l.25-.21A6.65,6.65,0,0,1,18,8.3l.3-.05.31-.05.18,0h.94l.3,0,.29,0,.31,0a6.78,6.78,0,0,1,.91.25l.44.17A6.1,6.1,0,0,1,22.5,9a2.79,2.79,0,0,1,.28.16c.18.11.36.24.54.37l.25.21.37.34a6.49,6.49,0,0,1,0,9.2,6.35,6.35,0,0,1-1.44,1.09l-.13.07h0l-.14.07-.07,0-.07,0-.14.06-.45.18-.3.09-.3.08-.31.07-.31.05-.26,0h-.08l-.19,0h-.92l-.27,0H18.5l-.24,0h-.05L18,21l-.42-.1-.19-.06-.15-.05-.29-.11-.11-.05h0l-.43-.21-.14-.07-.14-.08,0,0-.08,0-.15-.1-.15-.1-.39-.29L15,19.51a1.7,1.7,0,0,1-.24-.23L13.57,18.1Zm11.73-8.21h0l.06,0h.83l0,0H20l.05,0h0l.09,0,0,0,.09-.06h0l0,0h0l.21-.18.06-.06.05-.06h0l0,0,0,0a.22.22,0,0,0,.05-.08l0-.06h0l0,0v0l0,0h0l0-.05h0l0,0v0s0,0,0,0v0s0,0,0,0v0s0,0,0-.06V15h0v0h0v0a.17.17,0,0,1,0-.07v-.08s0-.06,0-.09,0-.05,0-.08V14.5a.2.2,0,0,1,0-.07.43.43,0,0,0,0,0v0h0v-.06s0,0,0-.06v0a.08.08,0,0,1,0,0v0l0,0v0s0,0,0,0h0l0-.05h0l0,0v0l0,0,0,0v0l-.06-.07v0l0,0h0l-.05,0-.06-.06a1.18,1.18,0,0,0-.21-.18h0l0,0h0l-.08-.06h0l0,0-.1-.05h0l0,0h-.06l-.06,0h-.06l-.06,0h-.79l-.05,0h-.14l0,0-.05,0h0l0,0h0l-.12.08h0l-.06.05,0,0h0l0,0s0,0,0,0l-.05.05L17,14.66l1.18,1.18,0,.05.05,0,0,0,0,0,.06,0,.13.08h0l0,0h0l.05,0,0,0h0l.05,0h.12Zm-.16,0h0Zm1.16,0Zm-1.31-.05h0Zm.11-3Zm1.15,0Z"/></g></g></svg>